<svg id="svg" version="1.1" xmlns="http://www.w3.org/2000/svg" xmlns:xlink="http://www.w3.org/1999/xlink" width="400" height="400" viewBox="0, 0, 400,400"><g id="svgg"><path id="path0" d="M6.000 2.824 C 6.000 3.305,5.823 3.538,5.573 3.383 C 5.338 3.238,5.052 3.481,4.936 3.923 C 4.821 4.365,4.365 4.821,3.923 4.936 C 3.481 5.052,3.238 5.338,3.383 5.573 C 3.778 6.212,4.800 6.087,4.800 5.400 C 4.800 5.070,5.070 4.800,5.400 4.800 C 5.730 4.800,6.000 4.587,6.000 4.326 C 6.000 4.065,6.391 3.435,6.870 2.926 L 7.739 2.000 6.870 2.000 C 6.258 2.000,6.000 2.245,6.000 2.824 M15.744 6.425 C 9.330 7.417,1.200 14.334,1.200 18.799 C 1.200 19.253,0.930 19.729,0.600 19.855 C -0.446 20.257,-0.296 378.023,0.750 378.676 C 1.163 378.934,1.629 379.832,1.786 380.672 C 1.943 381.513,2.213 382.380,2.387 382.600 C 2.560 382.820,2.829 383.414,2.984 383.920 C 3.282 384.890,8.513 390.400,9.137 390.400 C 9.338 390.400,9.726 390.670,10.000 391.000 C 10.274 391.330,10.791 391.601,11.149 391.602 C 11.507 391.604,12.340 391.911,13.000 392.286 C 14.119 392.921,18.399 392.958,76.214 392.836 L 138.228 392.704 138.706 393.754 L 139.185 394.804 261.492 394.675 C 391.086 394.538,384.927 394.631,389.044 392.751 C 389.948 392.338,390.861 392.000,391.073 392.000 C 391.477 392.000,397.292 386.045,398.500 384.394 C 398.885 383.868,399.200 382.844,399.200 382.119 C 399.200 381.393,399.380 380.800,399.600 380.800 C 399.866 380.800,400.000 320.743,400.000 201.428 L 400.000 22.056 399.100 21.928 C 398.332 21.819,398.182 21.521,398.078 19.900 C 397.992 18.566,397.784 18.000,397.378 18.000 C 397.002 18.000,396.800 17.580,396.800 16.800 C 396.800 15.690,396.688 15.596,395.300 15.546 C 394.371 15.512,394.143 15.425,394.700 15.318 C 395.814 15.103,395.898 14.000,394.800 14.000 C 394.360 14.000,394.000 13.749,394.000 13.443 C 394.000 13.136,393.730 12.782,393.400 12.655 C 393.070 12.529,392.800 12.149,392.800 11.813 C 392.800 11.476,392.530 11.200,392.200 11.200 C 391.870 11.200,391.600 10.930,391.600 10.600 C 391.600 10.181,391.178 10.000,390.200 10.000 C 389.222 10.000,388.800 9.819,388.800 9.400 C 388.800 9.070,388.455 8.800,388.033 8.800 C 386.841 8.800,386.000 8.369,386.000 7.757 C 386.000 7.286,381.005 7.188,353.700 7.122 C 335.935 7.079,320.950 7.018,320.400 6.986 C 319.850 6.953,276.650 6.808,224.400 6.663 C 172.150 6.518,104.380 6.319,73.800 6.222 C 39.763 6.114,17.247 6.193,15.744 6.425 M300.203 100.700 C 301.427 102.001,303.200 105.364,303.200 106.384 C 303.200 106.779,303.470 107.326,303.800 107.600 C 304.130 107.874,304.400 108.504,304.400 109.000 C 304.400 109.496,304.656 110.114,304.969 110.374 C 305.282 110.634,305.664 111.601,305.818 112.523 C 305.972 113.445,306.270 114.309,306.479 114.442 C 306.689 114.576,306.966 115.473,307.096 116.436 C 307.225 117.399,307.571 118.428,307.865 118.722 C 308.159 119.017,308.400 119.942,308.400 120.780 C 308.400 121.617,308.647 122.507,308.949 122.758 C 309.252 123.009,309.622 124.156,309.772 125.307 C 309.923 126.458,310.305 128.171,310.623 129.114 C 310.940 130.057,311.200 131.611,311.200 132.568 C 311.200 133.525,311.469 134.824,311.798 135.454 C 312.174 136.175,312.396 137.725,312.398 139.636 C 312.399 141.306,312.668 143.556,312.996 144.636 C 313.863 147.497,313.863 171.303,312.996 174.164 C 312.668 175.244,312.396 177.404,312.390 178.964 C 312.385 180.524,312.196 182.520,311.970 183.400 C 311.745 184.280,311.546 186.260,311.529 187.800 C 311.499 190.518,311.491 190.541,311.232 188.600 L 310.966 186.600 310.722 189.200 C 310.588 190.630,310.392 193.150,310.287 194.800 C 310.095 197.809,309.310 202.183,308.493 204.800 C 308.253 205.570,307.938 206.964,307.793 207.898 C 307.649 208.832,307.382 209.688,307.200 209.800 C 307.018 209.912,306.744 210.768,306.590 211.702 C 306.436 212.636,306.169 213.580,305.996 213.800 C 305.824 214.020,305.495 214.830,305.266 215.600 C 304.648 217.673,303.642 220.431,302.982 221.860 C 302.662 222.554,302.400 223.271,302.400 223.454 C 302.400 224.284,296.633 235.746,294.075 240.000 C 291.256 244.689,290.373 246.002,287.248 250.150 C 278.504 261.756,268.773 271.223,258.808 277.819 C 255.506 280.005,255.295 280.133,252.491 281.667 C 251.418 282.254,249.139 283.739,247.428 284.967 C 245.716 286.195,244.087 287.200,243.807 287.200 C 243.527 287.200,243.086 287.456,242.826 287.769 C 242.566 288.082,241.658 288.455,240.808 288.599 C 239.958 288.742,239.164 289.116,239.044 289.430 C 238.920 289.754,238.289 290.000,237.584 290.000 C 236.901 290.000,236.073 290.270,235.743 290.600 C 235.413 290.930,234.458 291.200,233.620 291.200 C 232.755 291.200,231.883 291.459,231.600 291.800 C 231.293 292.170,230.415 292.400,229.314 292.400 C 228.132 292.400,227.182 292.671,226.509 293.200 C 225.750 293.797,224.873 294.003,223.046 294.013 C 221.532 294.021,220.304 294.249,219.824 294.613 C 219.250 295.046,217.898 295.200,214.655 295.200 C 211.097 295.200,210.121 295.328,209.518 295.874 C 208.421 296.867,190.967 296.916,190.245 295.929 C 189.893 295.448,188.895 295.253,186.221 295.143 C 183.848 295.046,182.611 294.832,182.500 294.499 C 182.398 294.193,181.591 294.000,180.416 294.000 C 179.246 294.000,178.314 293.778,178.026 293.431 C 177.766 293.118,176.832 292.741,175.949 292.591 C 175.066 292.442,174.248 292.068,174.129 291.760 C 174.011 291.452,173.466 291.200,172.919 291.200 C 172.371 291.200,171.446 290.951,170.862 290.647 C 170.278 290.343,168.765 289.601,167.500 288.999 C 166.235 288.397,165.200 287.746,165.200 287.552 C 165.200 287.359,164.917 287.200,164.571 287.200 C 164.226 287.200,163.673 286.930,163.343 286.600 C 163.013 286.270,162.402 286.000,161.986 286.000 C 161.569 286.000,161.047 285.661,160.825 285.246 C 160.603 284.831,159.966 284.378,159.411 284.238 C 158.855 284.099,158.400 283.808,158.400 283.592 C 158.400 283.377,158.124 283.200,157.787 283.200 C 157.451 283.200,157.071 282.930,156.945 282.600 C 156.818 282.270,156.464 282.000,156.157 282.000 C 155.851 282.000,155.600 281.816,155.600 281.591 C 155.600 281.367,155.105 280.972,154.500 280.713 C 153.895 280.455,152.915 279.739,152.323 279.122 C 151.730 278.505,151.067 278.000,150.850 278.000 C 150.632 278.000,150.340 277.640,150.200 277.200 C 150.060 276.760,149.688 276.400,149.373 276.400 C 149.058 276.400,148.800 276.130,148.800 275.800 C 148.800 275.470,148.530 275.200,148.200 275.200 C 147.870 275.200,147.600 274.930,147.600 274.600 C 147.600 274.270,147.396 274.000,147.146 274.000 C 146.612 274.000,144.800 272.130,144.800 271.579 C 144.800 271.371,144.530 271.200,144.200 271.200 C 143.870 271.200,143.600 270.930,143.600 270.600 C 143.600 270.270,143.342 270.000,143.027 270.000 C 142.712 270.000,142.345 269.657,142.212 269.237 C 142.079 268.817,141.706 268.373,141.385 268.250 C 141.063 268.126,140.800 267.755,140.800 267.425 C 140.800 266.767,139.705 267.001,139.000 267.809 C 138.780 268.062,137.706 268.973,136.613 269.834 C 135.521 270.695,134.082 271.985,133.416 272.700 C 132.750 273.415,131.979 274.000,131.703 274.000 C 131.426 274.000,131.200 274.175,131.200 274.388 C 131.200 274.601,130.255 275.791,129.100 277.031 C 127.945 278.272,126.697 279.749,126.327 280.313 C 125.956 280.877,125.371 281.496,125.027 281.689 C 124.682 281.882,124.400 282.301,124.400 282.620 C 124.400 282.939,124.130 283.200,123.800 283.200 C 123.470 283.200,123.200 283.476,123.200 283.813 C 123.200 284.149,122.930 284.529,122.600 284.655 C 122.270 284.782,122.000 285.138,122.000 285.447 C 122.000 285.755,121.640 286.316,121.200 286.693 C 120.760 287.070,120.400 287.608,120.400 287.889 C 120.400 288.170,120.130 288.400,119.800 288.400 C 119.470 288.400,119.200 288.687,119.200 289.038 C 119.200 289.804,118.071 291.867,117.100 292.874 C 116.715 293.273,116.400 293.876,116.400 294.213 C 116.400 294.549,116.130 294.929,115.800 295.055 C 115.456 295.187,115.200 295.785,115.200 296.455 C 115.200 297.126,114.944 297.723,114.600 297.855 C 114.270 297.982,114.000 298.506,114.000 299.019 C 114.000 299.533,113.802 300.075,113.559 300.225 C 113.317 300.375,112.864 301.106,112.554 301.849 C 112.243 302.592,111.812 303.200,111.595 303.200 C 111.378 303.200,111.200 303.371,111.200 303.579 C 111.200 304.107,109.399 306.000,108.897 306.000 C 108.671 306.000,108.382 306.270,108.255 306.600 C 108.129 306.930,107.634 307.200,107.157 307.200 C 106.679 307.200,106.075 307.491,105.815 307.847 C 105.111 308.810,96.328 308.820,95.267 307.860 C 94.865 307.497,94.231 307.200,93.856 307.200 C 93.481 307.200,93.071 306.930,92.945 306.600 C 92.818 306.270,92.464 306.000,92.157 306.000 C 91.851 306.000,91.600 305.730,91.600 305.400 C 91.600 305.070,91.342 304.800,91.027 304.800 C 90.712 304.800,90.345 304.457,90.212 304.037 C 90.079 303.617,89.706 303.173,89.385 303.050 C 89.063 302.926,88.800 302.481,88.800 302.062 C 88.800 301.642,88.530 301.074,88.200 300.800 C 87.517 300.233,87.311 292.463,87.961 291.780 C 88.168 291.562,88.183 290.546,87.996 289.400 C 87.651 287.286,87.837 284.336,88.401 283.000 C 89.513 280.361,92.606 274.208,93.430 272.995 C 93.963 272.208,94.400 271.429,94.400 271.264 C 94.400 271.098,94.677 270.611,95.015 270.181 C 95.353 269.752,96.382 268.230,97.303 266.800 C 98.224 265.370,99.117 264.020,99.288 263.800 C 99.458 263.580,100.621 262.050,101.871 260.400 C 103.121 258.750,104.337 257.197,104.572 256.949 C 104.807 256.701,106.260 255.094,107.800 253.377 C 112.555 248.078,118.002 242.769,123.783 237.800 C 125.063 236.700,126.310 235.613,126.555 235.386 C 126.800 235.158,127.720 234.438,128.600 233.786 C 129.480 233.133,130.403 232.420,130.651 232.200 C 130.899 231.980,131.502 231.530,131.991 231.200 C 133.089 230.458,136.725 227.824,137.781 227.006 C 138.211 226.673,138.781 226.400,139.048 226.400 C 139.315 226.400,139.593 226.265,139.667 226.100 C 139.872 225.637,142.987 223.600,143.488 223.600 C 143.733 223.600,143.993 223.451,144.067 223.269 C 144.337 222.596,154.133 217.457,160.000 214.910 C 160.770 214.576,161.910 214.054,162.532 213.751 C 163.155 213.448,163.875 213.199,164.132 213.198 C 164.390 213.196,165.103 212.933,165.717 212.612 C 166.331 212.292,167.456 211.913,168.217 211.770 C 168.978 211.628,169.600 211.359,169.600 211.174 C 169.600 210.988,170.275 210.714,171.100 210.565 C 171.925 210.415,173.086 210.047,173.680 209.747 C 174.274 209.446,175.084 209.199,175.480 209.198 C 175.876 209.196,176.680 208.944,177.267 208.638 C 177.854 208.332,179.084 207.955,180.000 207.800 C 180.916 207.645,182.146 207.268,182.733 206.962 C 183.320 206.656,184.217 206.404,184.726 206.402 C 185.236 206.401,185.978 206.226,186.375 206.013 C 187.214 205.564,191.542 204.540,195.000 203.973 C 196.320 203.756,197.677 203.426,198.016 203.239 C 198.355 203.051,199.615 202.779,200.816 202.634 C 202.017 202.489,204.530 202.109,206.400 201.791 C 214.323 200.444,223.655 199.692,233.174 199.635 C 238.958 199.600,242.400 198.819,242.400 197.541 C 242.400 197.327,242.235 197.255,242.032 197.380 C 241.830 197.505,241.393 197.336,241.061 197.004 C 240.176 196.119,220.568 196.147,218.200 197.036 C 217.257 197.390,214.546 197.726,211.600 197.854 C 208.614 197.983,206.092 198.298,205.340 198.635 C 204.608 198.963,202.791 199.200,201.011 199.200 C 198.971 199.200,197.762 199.381,197.404 199.739 C 197.107 200.036,195.635 200.382,194.132 200.509 C 192.629 200.636,190.860 201.022,190.200 201.367 C 189.540 201.713,188.190 202.002,187.200 202.010 C 186.210 202.019,185.051 202.290,184.624 202.613 C 184.196 202.936,183.094 203.200,182.173 203.200 C 181.240 203.200,180.296 203.444,180.042 203.750 C 179.791 204.052,178.704 204.384,177.626 204.488 C 176.548 204.591,175.369 204.974,175.005 205.338 C 174.641 205.702,173.713 206.000,172.943 206.000 C 172.173 206.000,171.273 206.270,170.943 206.600 C 170.613 206.930,169.720 207.200,168.959 207.200 C 168.098 207.200,167.488 207.427,167.345 207.800 C 167.218 208.130,166.639 208.401,166.057 208.403 C 165.476 208.404,164.460 208.763,163.800 209.200 C 163.140 209.637,162.124 209.996,161.543 209.997 C 160.961 209.999,160.382 210.270,160.255 210.600 C 160.121 210.951,159.521 211.200,158.813 211.200 C 158.146 211.200,157.600 211.373,157.600 211.585 C 157.600 211.796,156.901 212.157,156.047 212.387 C 155.192 212.618,154.270 213.074,153.998 213.403 C 153.725 213.731,153.096 214.000,152.600 214.000 C 152.104 214.000,151.474 214.270,151.200 214.600 C 150.926 214.930,150.274 215.200,149.751 215.200 C 149.228 215.200,148.800 215.389,148.800 215.620 C 148.800 215.852,148.215 216.304,147.500 216.626 C 146.785 216.948,145.930 217.376,145.600 217.577 C 145.270 217.778,144.730 218.047,144.400 218.176 C 144.070 218.304,143.260 218.766,142.600 219.203 C 141.940 219.640,140.905 220.196,140.300 220.438 C 139.695 220.680,139.200 221.028,139.200 221.210 C 139.200 221.393,138.210 222.010,137.000 222.583 C 135.790 223.155,134.800 223.798,134.800 224.012 C 134.800 224.225,134.530 224.400,134.200 224.400 C 133.870 224.400,133.271 224.729,132.869 225.131 C 132.468 225.532,131.883 225.989,131.569 226.146 C 130.483 226.690,129.282 227.434,128.671 227.941 C 128.332 228.222,127.368 228.395,126.528 228.326 L 125.000 228.200 124.887 223.500 C 124.793 219.582,124.872 218.800,125.362 218.800 C 125.823 218.800,125.891 218.477,125.675 217.300 C 124.918 213.168,125.551 201.675,126.849 196.000 C 127.562 192.880,128.253 190.222,128.511 189.600 C 128.648 189.270,128.954 188.243,129.191 187.317 C 129.428 186.391,129.797 185.526,130.011 185.393 C 130.225 185.261,130.400 184.809,130.400 184.389 C 130.400 183.626,131.210 181.803,133.060 178.400 C 133.599 177.410,134.228 176.105,134.459 175.500 C 134.689 174.895,135.041 174.400,135.239 174.400 C 135.438 174.400,135.600 174.156,135.600 173.858 C 135.600 173.559,136.230 172.490,137.000 171.482 C 137.770 170.473,138.400 169.542,138.400 169.412 C 138.400 169.187,139.972 167.122,143.129 163.200 C 144.938 160.953,150.574 155.335,152.359 154.000 C 153.095 153.450,153.985 152.685,154.337 152.300 C 154.690 151.915,155.208 151.600,155.489 151.600 C 155.770 151.600,156.000 151.450,156.000 151.267 C 156.000 150.970,161.318 147.307,163.400 146.169 C 164.942 145.326,168.612 143.509,169.800 143.000 C 170.460 142.718,171.830 142.107,172.844 141.643 C 173.858 141.179,174.962 140.800,175.298 140.800 C 175.634 140.800,176.424 140.531,177.054 140.202 C 177.684 139.874,178.740 139.598,179.400 139.590 C 180.060 139.581,180.949 139.310,181.376 138.987 C 181.804 138.664,182.900 138.400,183.813 138.400 C 184.726 138.400,186.356 138.099,187.436 137.731 C 189.147 137.148,192.463 137.029,213.200 136.801 C 237.121 136.538,244.212 136.146,246.462 134.960 C 247.046 134.652,248.126 134.394,248.862 134.386 C 249.598 134.379,250.920 134.025,251.800 133.600 C 252.680 133.175,253.760 132.815,254.200 132.801 C 254.640 132.786,255.349 132.510,255.776 132.187 C 256.204 131.864,256.949 131.600,257.434 131.600 C 257.918 131.600,258.418 131.330,258.545 131.000 C 258.671 130.670,259.220 130.400,259.764 130.400 C 260.308 130.400,260.860 130.226,260.992 130.013 C 261.311 129.497,265.116 127.600,265.833 127.600 C 266.145 127.600,266.400 127.414,266.400 127.187 C 266.400 126.961,266.715 126.660,267.100 126.519 C 267.485 126.379,268.184 125.979,268.654 125.632 C 269.123 125.284,269.910 124.730,270.403 124.400 C 270.895 124.070,271.501 123.620,271.749 123.400 C 271.997 123.180,272.920 122.465,273.800 121.812 C 275.603 120.473,283.600 112.459,283.600 111.992 C 283.600 111.825,284.226 110.993,284.991 110.144 C 285.756 109.295,286.386 108.458,286.391 108.284 C 286.399 107.994,287.921 105.668,288.408 105.200 C 288.523 105.090,288.836 104.550,289.105 104.000 C 290.909 100.311,291.964 99.628,295.884 99.613 C 298.956 99.601,299.234 99.671,300.203 100.700 M0.000 388.400 C 0.000 389.280,0.180 390.000,0.400 390.000 C 0.620 390.000,0.800 389.280,0.800 388.400 C 0.800 387.520,0.620 386.800,0.400 386.800 C 0.180 386.800,0.000 387.520,0.000 388.400 M2.267 392.667 C 1.793 393.140,1.981 393.540,2.800 393.800 C 3.240 393.940,3.600 394.312,3.600 394.627 C 3.600 394.942,3.870 395.200,4.200 395.200 C 4.543 395.200,4.800 395.560,4.800 396.043 C 4.800 396.614,4.986 396.814,5.380 396.663 C 5.730 396.529,6.057 396.749,6.206 397.220 C 6.531 398.243,7.600 398.228,7.600 397.200 C 7.600 396.756,7.333 396.400,7.000 396.400 C 6.670 396.400,6.400 396.130,6.400 395.800 C 6.400 395.467,6.044 395.200,5.600 395.200 C 5.156 395.200,4.800 394.933,4.800 394.600 C 4.800 394.270,4.530 394.000,4.200 394.000 C 3.867 394.000,3.600 393.644,3.600 393.200 C 3.600 392.429,2.817 392.116,2.267 392.667 M8.800 398.357 C 8.800 398.807,9.840 399.226,10.161 398.906 C 10.642 398.424,10.380 398.000,9.600 398.000 C 9.160 398.000,8.800 398.161,8.800 398.357 M12.800 399.600 C 12.800 399.820,13.070 400.000,13.400 400.000 C 13.730 400.000,14.000 399.820,14.000 399.600 C 14.000 399.380,13.730 399.200,13.400 399.200 C 13.070 399.200,12.800 399.380,12.800 399.600 M385.600 399.600 C 385.600 399.820,385.870 400.000,386.200 400.000 C 386.530 400.000,386.800 399.820,386.800 399.600 C 386.800 399.380,386.530 399.200,386.200 399.200 C 385.870 399.200,385.600 399.380,385.600 399.600 " stroke="none" fill="#e92479" fill-rule="evenodd"></path><path id="path1" d="M291.619 102.419 C 290.509 103.530,289.600 104.610,289.600 104.821 C 289.600 105.304,286.384 109.965,284.232 112.599 C 281.098 116.437,272.748 124.400,271.857 124.400 C 271.743 124.400,271.058 124.940,270.336 125.600 C 269.613 126.260,268.805 126.800,268.539 126.800 C 268.274 126.800,267.791 127.066,267.466 127.392 C 267.140 127.717,266.021 128.437,264.979 128.991 C 263.937 129.545,262.885 130.154,262.642 130.344 C 262.399 130.534,261.705 130.808,261.100 130.952 C 260.495 131.097,260.000 131.392,260.000 131.608 C 260.000 131.823,259.787 132.000,259.526 132.000 C 259.266 132.000,258.321 132.328,257.426 132.729 C 255.048 133.794,253.231 134.423,251.200 134.884 C 250.210 135.109,249.216 135.440,248.990 135.620 C 248.765 135.801,247.595 136.068,246.390 136.215 C 245.186 136.361,243.312 136.733,242.227 137.040 C 240.649 137.488,235.893 137.603,218.427 137.613 C 205.826 137.621,195.416 137.798,193.800 138.033 C 192.260 138.256,189.560 138.603,187.800 138.803 C 186.040 139.003,183.880 139.436,183.000 139.766 C 182.120 140.095,180.860 140.379,180.200 140.395 C 179.540 140.412,178.651 140.690,178.224 141.013 C 177.796 141.336,176.976 141.600,176.400 141.600 C 175.824 141.600,175.004 141.864,174.576 142.187 C 174.149 142.510,173.550 142.780,173.244 142.787 C 172.715 142.799,169.682 144.091,168.400 144.850 C 168.070 145.045,167.530 145.307,167.200 145.431 C 166.870 145.556,166.330 145.822,166.000 146.023 C 165.670 146.224,164.860 146.660,164.200 146.993 C 163.540 147.326,162.460 147.957,161.800 148.395 C 161.140 148.833,160.331 149.319,160.002 149.476 C 154.956 151.880,142.583 164.373,137.800 171.895 C 137.580 172.241,136.815 173.437,136.100 174.553 C 135.385 175.669,134.800 176.734,134.800 176.919 C 134.800 177.105,134.530 177.527,134.200 177.857 C 133.870 178.187,133.600 178.782,133.600 179.180 C 133.600 179.577,133.330 180.126,133.000 180.400 C 132.670 180.674,132.400 181.147,132.400 181.450 C 132.400 181.754,132.040 182.675,131.600 183.496 C 131.160 184.316,130.800 185.195,130.800 185.448 C 130.800 185.701,130.531 186.424,130.202 187.054 C 129.874 187.684,129.598 188.650,129.590 189.200 C 129.581 189.750,129.310 190.549,128.987 190.976 C 128.664 191.404,128.392 192.394,128.382 193.176 C 128.373 193.959,128.098 195.320,127.772 196.200 C 127.234 197.653,126.947 199.965,126.148 209.289 C 125.894 212.256,126.560 218.204,127.190 218.594 C 127.454 218.757,130.050 217.112,131.126 216.100 C 131.418 215.825,131.899 215.600,132.195 215.600 C 132.491 215.600,132.793 215.464,132.867 215.298 C 133.040 214.905,137.785 211.948,141.600 209.856 C 142.590 209.312,144.210 208.405,145.200 207.839 C 146.190 207.273,147.270 206.705,147.600 206.576 C 147.930 206.448,148.470 206.175,148.800 205.970 C 149.130 205.766,149.850 205.415,150.400 205.191 C 150.950 204.967,151.760 204.611,152.200 204.400 C 152.640 204.189,153.450 203.833,154.000 203.609 C 154.550 203.385,155.270 203.040,155.600 202.842 C 155.930 202.644,157.010 202.161,158.000 201.770 C 158.990 201.379,160.555 200.730,161.478 200.329 C 162.401 199.928,163.400 199.600,163.698 199.600 C 163.996 199.600,164.434 199.406,164.671 199.169 C 164.908 198.932,165.709 198.582,166.451 198.391 C 168.401 197.891,171.694 196.796,172.451 196.398 C 172.809 196.209,173.799 195.927,174.651 195.771 C 175.503 195.614,176.555 195.242,176.989 194.943 C 177.423 194.644,178.380 194.400,179.115 194.400 C 179.851 194.400,180.846 194.189,181.326 193.931 C 182.312 193.402,185.819 192.531,189.400 191.927 C 190.720 191.704,192.135 191.345,192.545 191.129 C 192.955 190.913,194.687 190.596,196.394 190.424 C 198.100 190.252,199.696 189.988,199.939 189.838 C 200.182 189.688,202.590 189.284,205.290 188.941 C 207.991 188.598,211.370 188.165,212.800 187.979 C 214.230 187.793,217.040 187.632,219.045 187.621 C 221.050 187.609,223.570 187.433,224.645 187.230 C 228.901 186.424,239.243 186.596,241.005 187.502 C 246.086 190.113,246.031 196.852,240.908 199.598 C 239.567 200.317,238.644 200.401,232.006 200.408 C 227.324 200.413,223.423 200.628,221.400 200.994 C 219.640 201.312,216.900 201.578,215.311 201.586 C 213.723 201.594,211.113 201.859,209.511 202.175 C 207.910 202.491,205.340 202.933,203.800 203.156 C 198.929 203.861,195.838 204.437,194.600 204.869 C 193.940 205.099,192.478 205.430,191.351 205.603 C 190.224 205.776,188.964 206.093,188.551 206.307 C 188.138 206.522,186.949 206.821,185.909 206.972 C 184.869 207.123,183.920 207.405,183.800 207.600 C 183.680 207.795,182.731 208.079,181.691 208.232 C 180.651 208.385,179.445 208.755,179.011 209.055 C 178.577 209.355,177.767 209.601,177.211 209.602 C 176.655 209.604,175.684 209.874,175.054 210.202 C 174.424 210.531,173.614 210.806,173.254 210.814 C 172.894 210.821,171.880 211.175,171.000 211.600 C 170.120 212.025,169.017 212.379,168.549 212.386 C 168.081 212.394,167.474 212.670,167.200 213.000 C 166.926 213.330,166.387 213.600,166.002 213.600 C 165.203 213.600,160.835 215.386,157.538 217.061 C 156.954 217.357,156.211 217.600,155.887 217.600 C 155.563 217.600,155.089 217.852,154.833 218.161 C 154.577 218.469,153.903 218.838,153.335 218.981 C 152.768 219.123,152.042 219.501,151.723 219.820 C 151.404 220.139,150.796 220.400,150.371 220.400 C 149.947 220.400,149.600 220.545,149.600 220.723 C 149.600 220.901,148.475 221.625,147.100 222.332 C 143.900 223.979,143.069 224.494,142.705 225.055 C 142.543 225.306,141.958 225.624,141.405 225.763 C 140.852 225.902,140.400 226.192,140.400 226.408 C 140.400 226.623,140.218 226.800,139.996 226.800 C 139.639 226.800,137.028 228.507,134.546 230.362 C 134.077 230.713,133.282 231.270,132.780 231.600 C 132.279 231.930,131.580 232.470,131.229 232.800 C 130.877 233.130,128.936 234.702,126.915 236.293 C 124.894 237.884,122.634 239.774,121.892 240.493 C 121.150 241.212,119.205 243.086,117.571 244.658 C 114.496 247.615,107.362 254.982,105.589 257.032 C 102.473 260.633,97.600 267.321,97.600 267.996 C 97.600 268.218,97.432 268.400,97.227 268.400 C 97.022 268.400,96.740 268.759,96.601 269.198 C 96.462 269.636,96.134 270.230,95.874 270.516 C 95.386 271.052,94.658 272.323,92.848 275.800 C 92.276 276.900,91.671 277.860,91.504 277.933 C 91.337 278.007,91.200 278.257,91.200 278.490 C 91.200 278.722,90.863 279.652,90.451 280.556 C 88.656 284.496,88.400 285.342,88.400 287.337 C 88.400 288.573,88.643 289.769,88.987 290.224 C 89.310 290.651,89.580 291.307,89.587 291.682 C 89.627 293.796,93.963 297.977,96.752 298.590 C 97.434 298.739,98.094 299.028,98.219 299.231 C 98.579 299.813,101.791 299.661,103.054 299.002 C 103.684 298.674,104.532 298.404,104.937 298.402 C 106.680 298.397,110.367 294.664,112.052 291.200 C 115.575 283.957,116.032 283.071,116.383 282.800 C 116.526 282.690,117.075 281.880,117.605 281.000 C 119.784 277.376,123.312 272.867,127.000 268.991 C 128.100 267.835,129.474 266.374,130.052 265.744 C 131.294 264.395,136.009 259.951,138.164 258.100 C 140.067 256.465,142.800 257.074,142.800 259.132 C 142.800 259.291,143.115 259.708,143.500 260.056 C 143.885 260.405,145.299 261.840,146.642 263.245 C 149.243 265.965,152.204 268.714,154.435 270.480 C 157.499 272.903,159.630 274.400,160.016 274.400 C 160.241 274.400,160.529 274.670,160.655 275.000 C 160.782 275.330,161.095 275.600,161.352 275.600 C 161.608 275.600,162.775 276.230,163.944 277.000 C 165.113 277.770,166.313 278.400,166.611 278.400 C 166.909 278.400,167.257 278.569,167.384 278.775 C 167.512 278.981,168.647 279.619,169.908 280.193 C 171.169 280.767,172.678 281.498,173.262 281.818 C 173.846 282.138,174.622 282.400,174.988 282.400 C 175.354 282.400,176.046 282.622,176.526 282.894 C 177.428 283.403,179.525 284.021,183.000 284.802 C 184.100 285.049,185.949 285.521,187.110 285.849 C 190.083 286.692,209.923 286.683,213.873 285.838 C 215.373 285.518,217.761 285.140,219.180 284.999 C 220.600 284.857,222.066 284.579,222.438 284.379 C 222.811 284.180,224.170 283.896,225.458 283.748 C 226.746 283.600,227.909 283.312,228.042 283.109 C 228.176 282.906,229.076 282.638,230.042 282.515 C 231.009 282.391,232.286 282.045,232.880 281.745 C 233.474 281.445,234.284 281.194,234.680 281.186 C 235.076 281.179,236.120 280.825,237.000 280.400 C 237.880 279.975,238.810 279.621,239.068 279.614 C 239.325 279.606,240.045 279.352,240.668 279.049 C 241.290 278.746,242.430 278.219,243.200 277.879 C 245.760 276.748,251.378 273.925,253.000 272.955 C 253.880 272.428,254.915 271.887,255.300 271.752 C 255.685 271.617,256.000 271.360,256.000 271.180 C 256.000 271.001,256.405 270.730,256.900 270.578 C 257.395 270.427,258.550 269.694,259.467 268.951 C 260.384 268.208,261.310 267.600,261.525 267.600 C 261.739 267.600,262.018 267.330,262.145 267.000 C 262.271 266.670,262.606 266.396,262.887 266.391 C 263.169 266.386,264.073 265.801,264.896 265.091 C 265.719 264.381,267.060 263.260,267.875 262.600 C 268.691 261.940,271.713 259.060,274.590 256.200 C 279.496 251.325,281.734 248.848,284.586 245.141 C 285.238 244.294,285.913 243.600,286.086 243.600 C 286.259 243.600,286.400 243.403,286.400 243.163 C 286.400 242.923,286.715 242.314,287.100 241.809 C 287.485 241.305,288.070 240.490,288.400 239.997 C 288.730 239.505,289.197 238.895,289.437 238.643 C 289.677 238.390,290.106 237.749,290.391 237.217 C 290.675 236.685,291.072 236.059,291.273 235.825 C 292.009 234.967,294.400 231.120,294.400 230.794 C 294.400 230.609,294.628 230.219,294.906 229.929 C 295.184 229.638,296.188 227.870,297.136 226.000 C 298.085 224.130,299.019 222.330,299.212 222.000 C 299.404 221.670,299.864 220.680,300.234 219.800 C 301.351 217.141,302.419 214.668,302.997 213.400 C 303.299 212.740,303.659 211.750,303.798 211.200 C 303.937 210.650,304.214 209.840,304.414 209.400 C 305.137 207.812,306.069 204.965,306.429 203.243 C 306.632 202.276,306.958 201.286,307.154 201.043 C 307.350 200.799,307.637 199.655,307.793 198.500 C 307.948 197.346,308.221 196.310,308.400 196.200 C 308.579 196.090,308.844 195.054,308.990 193.900 C 309.135 192.745,309.496 190.990,309.792 190.000 C 310.088 189.010,310.424 186.904,310.540 185.320 C 310.655 183.737,310.921 182.117,311.130 181.720 C 311.338 181.324,311.629 178.750,311.775 176.000 C 311.921 173.250,312.232 168.750,312.466 166.000 C 313.154 157.909,311.700 138.925,309.800 131.200 C 309.503 129.990,309.058 128.100,308.811 127.000 C 307.699 122.043,307.507 121.327,306.970 120.140 C 306.657 119.446,306.400 118.447,306.400 117.920 C 306.400 117.392,306.231 116.789,306.026 116.580 C 305.820 116.371,305.188 114.760,304.621 113.000 C 304.055 111.240,303.333 109.260,303.017 108.600 C 302.701 107.940,301.986 106.382,301.428 105.138 C 298.923 99.557,295.445 98.593,291.619 102.419 " stroke="none" fill="#f3f2f2" fill-rule="evenodd"></path><path id="path2" d="M311.328 188.000 C 311.328 189.430,311.401 190.015,311.489 189.300 C 311.578 188.585,311.578 187.415,311.489 186.700 C 311.401 185.985,311.328 186.570,311.328 188.000 M221.898 188.016 C 217.991 188.197,213.851 188.531,212.698 188.760 C 211.544 188.989,209.430 189.280,208.000 189.408 C 204.995 189.677,199.043 190.589,195.000 191.401 C 188.779 192.651,184.120 193.729,182.692 194.250 C 181.862 194.553,180.744 194.800,180.205 194.800 C 179.667 194.800,178.636 195.047,177.914 195.350 C 177.191 195.652,175.250 196.308,173.600 196.807 C 171.950 197.307,170.240 197.865,169.800 198.047 C 168.600 198.544,165.583 199.594,164.000 200.066 C 163.230 200.295,162.420 200.608,162.200 200.760 C 161.980 200.912,160.810 201.414,159.600 201.876 C 156.512 203.053,156.274 203.152,155.600 203.538 C 155.270 203.727,154.190 204.257,153.200 204.716 C 144.649 208.678,139.529 211.529,131.744 216.662 C 127.380 219.540,126.400 220.005,126.400 219.200 C 126.400 218.980,126.034 218.800,125.587 218.800 C 124.810 218.800,124.780 219.005,124.887 223.500 L 125.000 228.200 126.528 228.326 C 127.368 228.395,128.332 228.222,128.671 227.941 C 129.282 227.434,130.483 226.690,131.569 226.146 C 131.883 225.989,132.468 225.532,132.869 225.131 C 133.271 224.729,133.870 224.400,134.200 224.400 C 134.530 224.400,134.800 224.225,134.800 224.012 C 134.800 223.798,135.790 223.155,137.000 222.583 C 138.210 222.010,139.200 221.393,139.200 221.210 C 139.200 221.028,139.695 220.680,140.300 220.438 C 140.905 220.196,141.940 219.640,142.600 219.203 C 143.260 218.766,144.070 218.304,144.400 218.176 C 144.730 218.047,145.270 217.778,145.600 217.577 C 145.930 217.376,146.785 216.948,147.500 216.626 C 148.215 216.304,148.800 215.852,148.800 215.620 C 148.800 215.389,149.228 215.200,149.751 215.200 C 150.274 215.200,150.926 214.930,151.200 214.600 C 151.474 214.270,152.104 214.000,152.600 214.000 C 153.096 214.000,153.725 213.731,153.998 213.403 C 154.270 213.074,155.192 212.618,156.047 212.387 C 156.901 212.157,157.600 211.796,157.600 211.585 C 157.600 211.373,158.146 211.200,158.813 211.200 C 159.521 211.200,160.121 210.951,160.255 210.600 C 160.382 210.270,160.961 209.999,161.543 209.997 C 162.124 209.996,163.140 209.637,163.800 209.200 C 164.460 208.763,165.476 208.404,166.057 208.403 C 166.639 208.401,167.218 208.130,167.345 207.800 C 167.488 207.427,168.098 207.200,168.959 207.200 C 169.720 207.200,170.613 206.930,170.943 206.600 C 171.273 206.270,172.173 206.000,172.943 206.000 C 173.713 206.000,174.641 205.702,175.005 205.338 C 175.369 204.974,176.548 204.591,177.626 204.488 C 178.704 204.384,179.791 204.052,180.042 203.750 C 180.296 203.444,181.240 203.200,182.173 203.200 C 183.094 203.200,184.196 202.936,184.624 202.613 C 185.051 202.290,186.210 202.019,187.200 202.010 C 188.190 202.002,189.540 201.713,190.200 201.367 C 190.860 201.022,192.629 200.636,194.132 200.509 C 195.635 200.382,197.107 200.036,197.404 199.739 C 197.762 199.381,198.971 199.200,201.011 199.200 C 202.791 199.200,204.608 198.963,205.340 198.635 C 206.092 198.298,208.614 197.983,211.600 197.854 C 214.546 197.726,217.257 197.390,218.200 197.036 C 220.558 196.150,240.176 196.119,241.056 196.999 C 241.532 197.475,241.835 197.504,242.528 197.139 C 244.755 195.967,244.703 191.923,242.429 189.485 L 240.859 187.800 234.929 187.744 C 231.668 187.713,225.804 187.835,221.898 188.016 M309.905 193.200 C 309.743 193.750,309.608 194.943,309.605 195.851 C 309.602 196.759,309.353 197.707,309.051 197.958 C 308.748 198.209,308.383 199.303,308.239 200.391 C 308.095 201.478,307.818 202.465,307.623 202.586 C 307.429 202.706,307.146 203.538,306.994 204.435 C 306.843 205.332,306.468 206.546,306.162 207.133 C 305.856 207.720,305.598 208.560,305.590 209.000 C 305.581 209.440,305.310 210.149,304.987 210.576 C 304.664 211.004,304.400 211.614,304.400 211.933 C 304.400 212.251,304.060 213.252,303.644 214.156 C 303.228 215.060,302.564 216.610,302.169 217.600 C 301.773 218.590,301.214 219.684,300.925 220.031 C 300.636 220.379,300.400 220.852,300.400 221.084 C 300.400 221.315,299.596 223.011,298.613 224.852 C 297.630 226.694,296.554 228.740,296.221 229.400 C 295.542 230.748,295.573 230.698,292.010 236.200 C 279.853 254.979,262.872 269.868,244.000 278.296 C 243.230 278.640,242.122 279.164,241.538 279.461 C 240.954 279.757,240.234 280.001,239.938 280.002 C 239.642 280.004,238.950 280.239,238.400 280.525 C 237.166 281.167,233.481 282.410,231.600 282.818 C 230.830 282.985,229.660 283.312,229.000 283.544 C 227.747 283.986,222.057 285.217,217.600 286.012 C 216.170 286.266,212.930 286.630,210.400 286.821 C 207.870 287.011,204.339 287.289,202.554 287.438 C 195.319 288.045,182.867 286.144,175.400 283.294 C 172.824 282.311,164.740 278.369,163.000 277.247 C 162.120 276.680,161.097 276.033,160.726 275.808 C 154.761 272.198,144.986 263.425,141.889 258.903 C 140.345 256.649,139.811 256.978,131.378 265.391 C 124.782 271.971,118.506 279.922,115.897 285.000 C 114.108 288.485,112.000 292.881,112.000 293.130 C 112.000 293.843,108.331 297.476,106.945 298.135 C 106.095 298.539,104.890 299.124,104.268 299.435 C 99.764 301.683,91.883 298.242,89.281 292.893 C 88.227 290.726,87.808 291.561,87.687 296.073 C 87.596 299.463,87.693 300.379,88.187 300.789 C 88.524 301.069,88.800 301.642,88.800 302.062 C 88.800 302.481,89.063 302.926,89.385 303.050 C 89.706 303.173,90.079 303.617,90.212 304.037 C 90.345 304.457,90.712 304.800,91.027 304.800 C 91.342 304.800,91.600 305.070,91.600 305.400 C 91.600 305.730,91.851 306.000,92.157 306.000 C 92.464 306.000,92.818 306.270,92.945 306.600 C 93.071 306.930,93.481 307.200,93.856 307.200 C 94.231 307.200,94.865 307.497,95.267 307.860 C 96.328 308.820,105.111 308.810,105.815 307.847 C 106.075 307.491,106.679 307.200,107.157 307.200 C 107.634 307.200,108.129 306.930,108.255 306.600 C 108.382 306.270,108.671 306.000,108.897 306.000 C 109.399 306.000,111.200 304.107,111.200 303.579 C 111.200 303.371,111.378 303.200,111.595 303.200 C 111.812 303.200,112.243 302.592,112.554 301.849 C 112.864 301.106,113.317 300.375,113.559 300.225 C 113.802 300.075,114.000 299.533,114.000 299.019 C 114.000 298.506,114.270 297.982,114.600 297.855 C 114.944 297.723,115.200 297.126,115.200 296.455 C 115.200 295.785,115.456 295.187,115.800 295.055 C 116.130 294.929,116.400 294.549,116.400 294.213 C 116.400 293.876,116.715 293.273,117.100 292.874 C 118.071 291.867,119.200 289.804,119.200 289.038 C 119.200 288.687,119.470 288.400,119.800 288.400 C 120.130 288.400,120.400 288.170,120.400 287.889 C 120.400 287.608,120.760 287.070,121.200 286.693 C 121.640 286.316,122.000 285.755,122.000 285.447 C 122.000 285.138,122.270 284.782,122.600 284.655 C 122.930 284.529,123.200 284.149,123.200 283.813 C 123.200 283.476,123.470 283.200,123.800 283.200 C 124.130 283.200,124.400 282.939,124.400 282.620 C 124.400 282.301,124.682 281.882,125.027 281.689 C 125.371 281.496,125.956 280.877,126.327 280.313 C 126.697 279.749,127.945 278.272,129.100 277.031 C 130.255 275.791,131.200 274.601,131.200 274.388 C 131.200 274.175,131.426 274.000,131.703 274.000 C 131.979 274.000,132.750 273.415,133.416 272.700 C 134.082 271.985,135.521 270.695,136.613 269.834 C 137.706 268.973,138.780 268.062,139.000 267.809 C 139.705 267.001,140.800 266.767,140.800 267.425 C 140.800 267.755,141.063 268.126,141.385 268.250 C 141.706 268.373,142.079 268.817,142.212 269.237 C 142.345 269.657,142.712 270.000,143.027 270.000 C 143.342 270.000,143.600 270.270,143.600 270.600 C 143.600 270.930,143.870 271.200,144.200 271.200 C 144.530 271.200,144.800 271.371,144.800 271.579 C 144.800 272.130,146.612 274.000,147.146 274.000 C 147.396 274.000,147.600 274.270,147.600 274.600 C 147.600 274.930,147.870 275.200,148.200 275.200 C 148.530 275.200,148.800 275.470,148.800 275.800 C 148.800 276.130,149.058 276.400,149.373 276.400 C 149.688 276.400,150.060 276.760,150.200 277.200 C 150.340 277.640,150.632 278.000,150.850 278.000 C 151.067 278.000,151.730 278.505,152.323 279.122 C 152.915 279.739,153.895 280.455,154.500 280.713 C 155.105 280.972,155.600 281.367,155.600 281.591 C 155.600 281.816,155.851 282.000,156.157 282.000 C 156.464 282.000,156.818 282.270,156.945 282.600 C 157.071 282.930,157.451 283.200,157.787 283.200 C 158.124 283.200,158.400 283.377,158.400 283.592 C 158.400 283.808,158.855 284.099,159.411 284.238 C 159.966 284.378,160.603 284.831,160.825 285.246 C 161.047 285.661,161.569 286.000,161.986 286.000 C 162.402 286.000,163.013 286.270,163.343 286.600 C 163.673 286.930,164.226 287.200,164.571 287.200 C 164.917 287.200,165.200 287.359,165.200 287.552 C 165.200 287.746,166.235 288.397,167.500 288.999 C 168.765 289.601,170.278 290.343,170.862 290.647 C 171.446 290.951,172.371 291.200,172.919 291.200 C 173.466 291.200,174.011 291.452,174.129 291.760 C 174.248 292.068,175.066 292.442,175.949 292.591 C 176.832 292.741,177.766 293.118,178.026 293.431 C 178.314 293.778,179.246 294.000,180.416 294.000 C 181.591 294.000,182.398 294.193,182.500 294.499 C 182.611 294.832,183.848 295.046,186.221 295.143 C 188.895 295.253,189.893 295.448,190.245 295.929 C 190.967 296.916,208.421 296.867,209.518 295.874 C 210.121 295.328,211.097 295.200,214.655 295.200 C 217.898 295.200,219.250 295.046,219.824 294.613 C 220.304 294.249,221.532 294.021,223.046 294.013 C 224.873 294.003,225.750 293.797,226.509 293.200 C 227.182 292.671,228.132 292.400,229.314 292.400 C 230.415 292.400,231.293 292.170,231.600 291.800 C 231.883 291.459,232.755 291.200,233.620 291.200 C 234.458 291.200,235.413 290.930,235.743 290.600 C 236.073 290.270,236.901 290.000,237.584 290.000 C 238.289 290.000,238.920 289.754,239.044 289.430 C 239.164 289.116,239.958 288.742,240.808 288.599 C 241.658 288.455,242.566 288.082,242.826 287.769 C 243.086 287.456,243.527 287.200,243.807 287.200 C 244.087 287.200,245.716 286.195,247.428 284.967 C 249.139 283.739,251.418 282.254,252.491 281.667 C 255.295 280.133,255.506 280.005,258.808 277.819 C 268.773 271.223,278.504 261.756,287.248 250.150 C 290.373 246.002,291.256 244.689,294.075 240.000 C 296.633 235.746,302.400 224.284,302.400 223.454 C 302.400 223.271,302.662 222.554,302.982 221.860 C 303.642 220.431,304.648 217.673,305.266 215.600 C 305.495 214.830,305.824 214.020,305.996 213.800 C 306.169 213.580,306.436 212.636,306.590 211.702 C 306.744 210.768,307.018 209.912,307.200 209.800 C 307.382 209.688,307.648 208.832,307.793 207.898 C 307.937 206.964,308.298 205.390,308.596 204.400 C 308.893 203.410,309.258 201.700,309.408 200.600 C 309.557 199.500,309.850 198.281,310.058 197.891 C 310.267 197.501,310.384 196.061,310.319 194.691 C 310.231 192.854,310.123 192.462,309.905 193.200 M0.000 382.600 C 0.000 385.005,0.163 386.800,0.382 386.800 C 0.593 386.800,0.818 388.105,0.882 389.700 L 1.000 392.600 2.346 392.492 C 3.688 392.385,3.691 392.389,3.475 393.892 C 3.355 394.722,3.348 395.085,3.458 394.700 C 3.703 393.846,4.800 393.764,4.800 394.600 C 4.800 394.933,5.156 395.200,5.600 395.200 C 6.044 395.200,6.400 395.467,6.400 395.800 C 6.400 396.130,6.670 396.400,7.000 396.400 C 7.333 396.400,7.600 396.756,7.600 397.200 C 7.600 397.852,7.867 398.000,9.043 398.000 C 10.161 398.000,10.434 398.135,10.255 398.600 C 10.070 399.084,10.410 399.200,12.013 399.200 C 13.106 399.200,14.000 399.380,14.000 399.600 C 14.000 399.866,76.200 400.000,199.800 400.000 C 323.400 400.000,385.600 399.866,385.600 399.600 C 385.600 399.380,385.870 399.200,386.200 399.200 C 386.530 399.200,386.803 399.425,386.806 399.700 C 386.811 400.100,386.876 400.100,387.130 399.700 C 387.304 399.425,388.219 399.170,389.162 399.133 C 390.168 399.094,390.961 398.846,391.081 398.533 C 391.194 398.240,391.599 398.000,391.982 398.000 C 392.364 398.000,393.093 397.640,393.600 397.200 C 394.107 396.760,394.675 396.400,394.861 396.400 C 395.048 396.400,395.200 395.961,395.200 395.424 C 395.200 394.887,395.411 394.317,395.668 394.158 C 395.983 393.964,396.052 394.087,395.881 394.534 C 395.519 395.477,396.047 395.348,397.100 394.237 C 397.595 393.715,398.000 392.818,398.000 392.244 C 398.000 391.583,398.220 391.200,398.600 391.200 C 399.019 391.200,399.200 390.778,399.200 389.800 C 399.200 388.950,399.396 388.398,399.700 388.394 C 400.039 388.390,400.007 388.251,399.600 387.963 C 399.148 387.644,399.124 387.489,399.500 387.336 C 400.117 387.086,400.213 380.800,399.600 380.800 C 399.380 380.800,399.200 381.393,399.200 382.119 C 399.200 382.844,398.885 383.868,398.500 384.394 C 397.292 386.045,391.477 392.000,391.073 392.000 C 390.861 392.000,389.948 392.338,389.044 392.751 C 384.927 394.631,391.086 394.538,261.492 394.675 L 139.185 394.804 138.706 393.754 L 138.228 392.704 76.214 392.836 C 18.399 392.958,14.119 392.921,13.000 392.286 C 12.340 391.911,11.507 391.604,11.149 391.602 C 10.791 391.601,10.274 391.330,10.000 391.000 C 9.726 390.670,9.338 390.400,9.137 390.400 C 8.513 390.400,3.282 384.890,2.984 383.920 C 2.829 383.414,2.565 382.820,2.397 382.600 C 2.230 382.380,1.961 381.570,1.800 380.800 C 1.491 379.322,0.935 378.400,0.351 378.400 C 0.158 378.400,0.000 380.290,0.000 382.600 " stroke="none" fill="#8b1d4d" fill-rule="evenodd"></path><path id="path3" d="M11.600 0.400 C 11.600 0.620,11.054 0.800,10.387 0.800 C 9.679 0.800,9.079 1.049,8.945 1.400 C 8.818 1.730,8.495 2.000,8.227 2.000 C 7.617 2.000,6.000 3.688,6.000 4.326 C 6.000 4.587,5.730 4.800,5.400 4.800 C 5.070 4.800,4.800 5.070,4.800 5.400 C 4.800 5.739,4.442 6.000,3.976 6.000 C 3.523 6.000,3.256 6.167,3.382 6.371 C 3.508 6.575,3.249 6.857,2.806 6.998 C 2.351 7.142,2.000 7.603,2.000 8.056 C 2.000 8.496,1.730 9.127,1.400 9.457 C 1.070 9.787,0.800 10.404,0.800 10.829 C 0.800 11.253,0.620 11.600,0.400 11.600 C 0.159 11.600,0.000 13.278,0.000 15.833 C 0.000 20.070,0.620 21.457,1.224 18.570 C 1.956 15.069,6.893 9.603,10.910 7.846 C 15.316 5.918,16.054 5.898,74.200 6.157 C 104.120 6.290,171.530 6.518,224.000 6.663 C 276.470 6.808,319.850 6.953,320.400 6.985 C 320.950 7.018,335.935 7.079,353.700 7.122 C 381.005 7.188,386.000 7.286,386.000 7.757 C 386.000 8.369,386.841 8.800,388.033 8.800 C 388.455 8.800,388.800 9.070,388.800 9.400 C 388.800 9.819,389.222 10.000,390.200 10.000 C 391.178 10.000,391.600 10.181,391.600 10.600 C 391.600 10.930,391.870 11.200,392.200 11.200 C 392.530 11.200,392.800 11.476,392.800 11.813 C 392.800 12.149,393.070 12.529,393.400 12.655 C 393.730 12.782,394.000 13.136,394.000 13.443 C 394.000 13.749,394.360 14.000,394.800 14.000 C 395.898 14.000,395.814 15.103,394.700 15.318 C 394.143 15.425,394.371 15.512,395.300 15.546 C 396.688 15.596,396.800 15.690,396.800 16.800 C 396.800 17.580,397.002 18.000,397.378 18.000 C 397.784 18.000,397.992 18.566,398.078 19.900 C 398.182 21.521,398.332 21.819,399.100 21.928 C 400.054 22.063,400.509 19.836,399.591 19.530 C 399.365 19.455,399.065 18.680,398.924 17.809 C 398.622 15.949,398.671 16.019,394.800 11.911 C 391.304 8.201,388.673 6.774,384.000 6.052 C 380.809 5.560,295.111 4.800,242.728 4.800 L 215.200 4.800 215.200 2.400 L 215.200 0.000 113.400 0.000 C 45.800 0.000,11.600 0.134,11.600 0.400 M291.600 100.541 C 290.522 101.529,289.875 102.425,289.105 104.000 C 288.836 104.550,288.523 105.090,288.408 105.200 C 287.921 105.668,286.399 107.994,286.391 108.284 C 286.386 108.458,285.756 109.295,284.991 110.144 C 284.226 110.993,283.600 111.825,283.600 111.992 C 283.600 112.459,275.603 120.473,273.800 121.812 C 272.920 122.465,271.997 123.180,271.749 123.400 C 271.501 123.620,270.895 124.070,270.403 124.400 C 269.910 124.730,269.123 125.284,268.654 125.632 C 268.184 125.979,267.485 126.379,267.100 126.519 C 266.715 126.660,266.400 126.961,266.400 127.187 C 266.400 127.414,266.145 127.600,265.833 127.600 C 265.116 127.600,261.311 129.497,260.992 130.013 C 260.860 130.226,260.308 130.400,259.764 130.400 C 259.220 130.400,258.671 130.670,258.545 131.000 C 258.418 131.330,257.918 131.600,257.434 131.600 C 256.949 131.600,256.204 131.864,255.776 132.187 C 255.349 132.510,254.640 132.786,254.200 132.801 C 253.760 132.815,252.680 133.175,251.800 133.600 C 250.920 134.025,249.598 134.379,248.862 134.386 C 248.126 134.394,247.046 134.652,246.462 134.960 C 244.212 136.146,237.121 136.538,213.200 136.801 C 192.463 137.029,189.147 137.148,187.436 137.731 C 186.356 138.099,184.726 138.400,183.813 138.400 C 182.900 138.400,181.804 138.664,181.376 138.987 C 180.949 139.310,180.060 139.581,179.400 139.590 C 178.740 139.598,177.684 139.874,177.054 140.202 C 176.424 140.531,175.634 140.800,175.298 140.800 C 174.962 140.800,173.858 141.179,172.844 141.643 C 171.830 142.107,170.460 142.718,169.800 143.000 C 168.612 143.509,164.942 145.326,163.400 146.169 C 161.318 147.307,156.000 150.970,156.000 151.267 C 156.000 151.450,155.770 151.600,155.489 151.600 C 155.208 151.600,154.690 151.915,154.337 152.300 C 153.985 152.685,153.095 153.450,152.359 154.000 C 150.574 155.335,144.938 160.953,143.129 163.200 C 139.972 167.122,138.400 169.187,138.400 169.412 C 138.400 169.542,137.770 170.473,137.000 171.482 C 136.230 172.490,135.600 173.559,135.600 173.858 C 135.600 174.156,135.438 174.400,135.239 174.400 C 135.041 174.400,134.689 174.895,134.459 175.500 C 134.228 176.105,133.599 177.410,133.060 178.400 C 131.210 181.803,130.400 183.626,130.400 184.389 C 130.400 184.809,130.225 185.261,130.011 185.393 C 129.797 185.526,129.428 186.391,129.191 187.317 C 128.954 188.243,128.648 189.270,128.511 189.600 C 128.253 190.222,127.562 192.880,126.849 196.000 C 124.849 204.746,124.876 219.600,126.893 219.600 C 127.111 219.600,129.294 218.278,131.744 216.662 C 139.529 211.529,144.649 208.678,153.200 204.716 C 154.190 204.257,155.270 203.727,155.600 203.538 C 156.274 203.152,156.512 203.053,159.600 201.876 C 160.810 201.414,161.980 200.912,162.200 200.760 C 162.420 200.608,163.230 200.295,164.000 200.066 C 165.583 199.594,168.600 198.544,169.800 198.047 C 170.240 197.865,171.950 197.307,173.600 196.807 C 175.250 196.308,177.191 195.652,177.914 195.350 C 178.636 195.047,179.667 194.800,180.205 194.800 C 180.744 194.800,181.862 194.553,182.692 194.250 C 185.134 193.359,195.418 191.193,201.800 190.225 C 213.419 188.463,218.933 188.017,230.525 187.902 L 240.850 187.800 242.425 189.485 C 244.483 191.685,244.726 195.100,242.960 197.005 C 240.883 199.247,239.585 199.597,233.215 199.635 C 223.657 199.692,214.337 200.441,206.400 201.791 C 204.530 202.109,202.017 202.489,200.816 202.634 C 199.615 202.779,198.355 203.051,198.016 203.239 C 197.677 203.426,196.320 203.756,195.000 203.973 C 191.542 204.540,187.214 205.564,186.375 206.013 C 185.978 206.226,185.236 206.401,184.726 206.402 C 184.217 206.404,183.320 206.656,182.733 206.962 C 182.146 207.268,180.916 207.645,180.000 207.800 C 179.084 207.955,177.854 208.332,177.267 208.638 C 176.680 208.944,175.876 209.196,175.480 209.198 C 175.084 209.199,174.274 209.446,173.680 209.747 C 173.086 210.047,171.925 210.415,171.100 210.565 C 170.275 210.714,169.600 210.988,169.600 211.174 C 169.600 211.359,168.978 211.628,168.217 211.770 C 167.456 211.913,166.331 212.292,165.717 212.612 C 165.103 212.933,164.390 213.196,164.132 213.198 C 163.875 213.199,163.155 213.448,162.532 213.751 C 161.910 214.054,160.770 214.576,160.000 214.910 C 154.133 217.457,144.337 222.596,144.067 223.269 C 143.993 223.451,143.733 223.600,143.488 223.600 C 142.987 223.600,139.872 225.637,139.667 226.100 C 139.593 226.265,139.315 226.400,139.048 226.400 C 138.781 226.400,138.211 226.673,137.781 227.006 C 136.725 227.824,133.089 230.458,131.991 231.200 C 131.502 231.530,130.899 231.980,130.651 232.200 C 130.403 232.420,129.480 233.133,128.600 233.786 C 127.720 234.438,126.800 235.158,126.555 235.386 C 126.310 235.613,125.063 236.700,123.783 237.800 C 118.002 242.769,112.555 248.078,107.800 253.377 C 106.260 255.094,104.807 256.701,104.572 256.949 C 104.337 257.197,103.121 258.750,101.871 260.400 C 100.621 262.050,99.458 263.580,99.288 263.800 C 99.117 264.020,98.224 265.370,97.303 266.800 C 96.382 268.230,95.353 269.752,95.015 270.181 C 94.677 270.611,94.400 271.098,94.400 271.264 C 94.400 271.429,93.963 272.208,93.430 272.995 C 92.896 273.781,91.622 276.174,90.599 278.312 C 89.575 280.451,88.548 282.592,88.316 283.072 C 84.348 291.278,96.217 303.453,104.268 299.435 C 104.890 299.124,106.095 298.539,106.945 298.135 C 108.331 297.476,112.000 293.843,112.000 293.130 C 112.000 292.881,114.108 288.485,115.897 285.000 C 118.506 279.922,124.782 271.971,131.378 265.391 C 139.811 256.978,140.345 256.649,141.889 258.903 C 144.986 263.425,154.761 272.198,160.726 275.808 C 161.097 276.033,162.120 276.680,163.000 277.247 C 164.740 278.369,172.824 282.311,175.400 283.294 C 182.867 286.144,195.319 288.045,202.554 287.438 C 204.339 287.289,207.870 287.011,210.400 286.821 C 212.930 286.630,216.170 286.266,217.600 286.012 C 222.057 285.217,227.747 283.986,229.000 283.544 C 229.660 283.312,230.830 282.985,231.600 282.818 C 233.481 282.410,237.166 281.167,238.400 280.525 C 238.950 280.239,239.642 280.004,239.938 280.002 C 240.234 280.001,240.954 279.757,241.538 279.461 C 242.122 279.164,243.230 278.640,244.000 278.296 C 261.219 270.606,277.890 256.684,288.659 241.000 C 289.414 239.900,290.742 238.010,291.610 236.800 C 292.478 235.590,293.662 233.700,294.242 232.600 C 294.822 231.500,295.815 229.826,296.448 228.880 C 297.082 227.934,297.600 226.910,297.600 226.604 C 297.600 226.298,297.764 225.946,297.965 225.821 C 298.166 225.697,298.691 224.832,299.131 223.898 C 301.763 218.316,302.800 215.917,302.800 215.415 C 302.800 215.103,302.967 214.744,303.171 214.618 C 303.375 214.492,303.748 213.716,304.001 212.894 C 304.254 212.072,304.695 210.860,304.981 210.200 C 305.903 208.074,307.260 203.808,308.161 200.200 C 308.435 199.100,308.871 197.693,309.130 197.074 C 309.388 196.455,309.600 195.414,309.600 194.761 C 309.600 194.108,309.870 192.928,310.200 192.138 C 310.530 191.349,310.808 189.869,310.818 188.851 C 310.827 187.833,311.105 186.280,311.435 185.400 C 311.766 184.520,312.187 181.730,312.372 179.200 C 312.557 176.670,312.909 174.093,313.154 173.474 C 313.883 171.632,313.748 147.118,312.996 144.636 C 312.668 143.556,312.399 141.306,312.398 139.636 C 312.396 137.725,312.174 136.175,311.798 135.454 C 311.469 134.824,311.200 133.525,311.200 132.568 C 311.200 131.611,310.940 130.057,310.623 129.114 C 310.305 128.171,309.923 126.458,309.772 125.307 C 309.622 124.156,309.252 123.009,308.949 122.758 C 308.647 122.507,308.400 121.617,308.400 120.780 C 308.400 119.942,308.159 119.017,307.865 118.722 C 307.571 118.428,307.225 117.399,307.096 116.436 C 306.966 115.473,306.689 114.576,306.479 114.442 C 306.270 114.309,305.972 113.445,305.818 112.523 C 305.664 111.601,305.282 110.634,304.969 110.374 C 304.656 110.114,304.400 109.496,304.400 109.000 C 304.400 108.504,304.130 107.874,303.800 107.600 C 303.470 107.326,303.200 106.779,303.200 106.384 C 303.200 105.364,301.427 102.001,300.203 100.700 C 298.753 99.160,293.220 99.057,291.600 100.541 M299.687 101.319 C 300.409 102.044,301.418 103.709,301.928 105.019 C 302.438 106.328,303.004 107.683,303.186 108.028 C 303.859 109.306,306.142 115.555,307.048 118.600 C 308.989 125.119,309.853 128.840,311.367 137.200 C 312.728 144.718,313.331 158.852,312.634 166.910 C 312.285 170.945,312.000 175.418,312.000 176.850 C 312.000 178.283,311.743 180.342,311.428 181.427 C 311.114 182.512,310.742 184.480,310.602 185.800 C 310.344 188.225,309.562 192.131,308.600 195.800 C 308.312 196.900,307.962 198.467,307.823 199.283 C 307.684 200.099,307.308 201.269,306.988 201.883 C 306.667 202.497,306.404 203.484,306.402 204.076 C 306.401 204.668,306.238 205.253,306.040 205.375 C 305.842 205.497,305.464 206.499,305.200 207.600 C 304.936 208.701,304.558 209.703,304.360 209.825 C 304.162 209.947,303.994 210.352,303.986 210.724 C 303.979 211.096,303.625 212.120,303.200 213.000 C 302.775 213.880,302.421 214.763,302.414 214.961 C 302.384 215.755,295.939 228.903,295.042 230.000 C 294.772 230.330,294.112 231.455,293.576 232.500 C 293.040 233.545,292.466 234.400,292.301 234.400 C 292.135 234.400,292.000 234.648,292.000 234.951 C 292.000 235.254,291.711 235.742,291.358 236.035 C 291.005 236.327,290.558 236.935,290.363 237.384 C 288.664 241.307,277.971 253.565,269.240 261.600 C 268.295 262.469,262.094 267.213,260.079 268.609 C 257.683 270.267,253.432 272.946,251.500 274.013 C 251.115 274.226,250.485 274.580,250.100 274.801 C 249.715 275.021,248.950 275.389,248.400 275.617 C 247.850 275.846,246.320 276.539,245.000 277.159 C 241.293 278.899,240.476 279.235,236.400 280.695 C 234.310 281.444,231.790 282.223,230.800 282.426 C 229.810 282.629,228.640 282.965,228.200 283.172 C 227.436 283.532,225.932 283.854,220.600 284.796 C 219.280 285.029,216.580 285.517,214.600 285.880 C 209.450 286.824,190.011 286.835,186.800 285.895 C 185.590 285.541,183.700 285.049,182.600 284.802 C 179.125 284.021,177.028 283.403,176.126 282.894 C 175.646 282.622,174.996 282.400,174.681 282.400 C 174.078 282.400,163.385 277.046,162.457 276.280 C 162.159 276.033,161.582 275.644,161.175 275.416 C 159.918 274.710,155.057 271.270,153.959 270.310 C 148.248 265.318,146.498 263.540,141.684 257.841 C 140.547 256.496,139.847 256.670,137.312 258.929 C 134.356 261.563,126.373 269.620,124.484 271.877 C 120.645 276.463,115.600 283.715,115.600 284.647 C 115.600 284.914,115.456 285.193,115.281 285.267 C 114.955 285.403,111.600 292.091,111.600 292.603 C 111.600 296.197,101.049 300.934,97.346 299.002 C 96.716 298.674,95.909 298.404,95.554 298.402 C 94.416 298.398,90.563 294.295,89.411 291.861 C 87.461 287.738,87.790 285.336,91.280 278.200 C 92.963 274.760,93.126 274.468,95.100 271.362 C 95.815 270.238,96.400 269.126,96.400 268.892 C 96.400 268.658,96.535 268.407,96.700 268.333 C 97.048 268.179,98.800 265.740,98.800 265.410 C 98.800 265.194,103.485 259.096,105.545 256.632 C 110.256 250.994,127.416 234.997,132.395 231.600 C 132.879 231.270,133.843 230.579,134.537 230.065 C 135.232 229.551,137.060 228.314,138.600 227.315 C 140.140 226.317,142.300 224.909,143.400 224.187 C 149.720 220.038,160.308 215.099,170.800 211.406 C 171.570 211.135,172.830 210.692,173.600 210.421 C 174.370 210.151,175.713 209.756,176.584 209.544 C 177.456 209.332,178.356 209.008,178.584 208.825 C 178.813 208.642,179.630 208.365,180.400 208.209 C 181.170 208.053,182.610 207.681,183.600 207.382 C 184.590 207.082,186.525 206.559,187.900 206.219 C 189.275 205.878,191.435 205.328,192.700 204.995 C 193.965 204.662,195.990 204.229,197.200 204.033 C 198.410 203.837,200.390 203.482,201.600 203.244 C 210.603 201.470,225.200 200.058,234.916 200.019 C 240.110 199.998,241.924 199.440,243.562 197.357 C 245.652 194.701,244.031 188.306,241.120 187.724 C 240.495 187.599,239.886 187.340,239.768 187.148 C 239.475 186.674,229.797 186.707,225.821 187.196 C 224.049 187.414,219.900 187.762,216.600 187.970 C 210.119 188.378,201.782 189.367,199.819 189.959 C 199.149 190.162,197.460 190.433,196.066 190.561 C 194.672 190.690,193.322 190.931,193.066 191.097 C 192.810 191.264,191.430 191.615,190.000 191.877 C 186.933 192.440,183.103 193.325,181.175 193.915 C 180.419 194.147,178.450 194.733,176.800 195.218 C 175.150 195.703,172.540 196.541,171.000 197.080 C 169.460 197.620,167.593 198.214,166.851 198.400 C 166.109 198.586,165.308 198.932,165.071 199.169 C 164.834 199.406,164.361 199.606,164.020 199.614 C 163.679 199.621,162.680 199.975,161.800 200.400 C 160.920 200.825,159.990 201.179,159.732 201.186 C 159.475 201.194,158.755 201.448,158.132 201.751 C 157.510 202.054,156.370 202.581,155.600 202.921 C 152.262 204.396,146.984 206.977,146.800 207.224 C 146.690 207.371,146.150 207.628,145.600 207.793 C 145.050 207.959,144.330 208.304,144.000 208.560 C 143.670 208.816,142.590 209.456,141.600 209.983 C 140.610 210.509,139.709 211.044,139.599 211.170 C 139.488 211.297,138.588 211.830,137.599 212.356 C 136.609 212.882,134.303 214.322,132.472 215.556 C 126.651 219.482,126.904 219.500,126.159 215.113 C 125.552 211.539,126.529 197.637,127.522 195.724 C 127.729 195.326,128.029 194.100,128.188 193.000 C 128.348 191.900,128.669 190.644,128.902 190.209 C 129.135 189.775,129.465 188.875,129.635 188.209 C 130.361 185.378,133.667 178.110,136.132 173.927 C 144.133 160.346,159.671 147.158,173.600 142.125 C 174.810 141.688,176.430 141.102,177.200 140.824 C 177.970 140.545,179.410 140.173,180.400 139.997 C 181.390 139.821,182.650 139.489,183.200 139.259 C 184.212 138.835,188.354 138.206,194.200 137.588 C 195.960 137.403,206.600 137.239,217.845 137.225 C 230.104 137.210,239.154 137.035,240.445 136.788 C 241.630 136.561,243.846 136.197,245.369 135.980 C 246.892 135.762,248.332 135.431,248.569 135.244 C 248.806 135.057,249.671 134.783,250.492 134.636 C 253.659 134.065,261.154 130.751,267.134 127.278 C 275.110 122.644,284.406 113.245,289.480 104.683 C 292.410 99.740,296.704 98.324,299.687 101.319 " stroke="none" fill="#f078ab" fill-rule="evenodd"></path><path id="path4" d="M215.200 2.400 L 215.200 4.800 242.728 4.800 C 295.111 4.800,380.809 5.560,384.000 6.052 C 388.673 6.774,391.304 8.201,394.800 11.911 C 398.570 15.912,398.799 16.208,398.805 17.083 C 398.814 18.248,399.266 19.600,399.647 19.600 C 399.841 19.600,400.000 17.800,400.000 15.600 C 400.000 13.200,399.840 11.600,399.600 11.600 C 399.380 11.600,399.200 11.253,399.200 10.829 C 399.200 10.404,398.930 9.787,398.600 9.457 C 398.270 9.127,398.000 8.610,398.000 8.309 C 398.000 8.007,397.775 7.518,397.500 7.221 C 397.095 6.785,397.108 6.744,397.568 7.007 C 397.917 7.206,397.840 6.935,397.368 6.305 C 396.946 5.740,396.530 5.345,396.445 5.427 C 396.226 5.639,394.006 4.014,394.055 3.678 C 394.182 2.791,393.935 2.091,393.500 2.107 C 391.947 2.165,391.200 1.936,391.200 1.400 C 391.200 0.981,390.778 0.800,389.800 0.800 C 389.030 0.800,388.400 0.620,388.400 0.400 C 388.400 0.135,359.267 0.000,301.800 0.000 L 215.200 0.000 215.200 2.400 M292.424 100.982 C 291.692 101.522,290.751 102.527,290.332 103.216 C 289.735 104.197,290.010 104.028,291.604 102.434 C 295.446 98.592,298.919 99.548,301.428 105.138 C 301.986 106.382,302.701 107.940,303.017 108.600 C 303.333 109.260,304.055 111.240,304.621 113.000 C 305.188 114.760,305.820 116.371,306.026 116.580 C 306.231 116.789,306.400 117.392,306.400 117.920 C 306.400 118.447,306.657 119.446,306.970 120.140 C 307.507 121.327,307.699 122.043,308.811 127.000 C 309.058 128.100,309.503 129.990,309.800 131.200 C 310.942 135.845,311.739 142.687,312.455 154.000 C 312.755 158.730,313.058 161.886,313.129 161.014 C 313.337 158.461,312.038 140.910,311.367 137.200 C 309.853 128.840,308.989 125.119,307.048 118.600 C 306.142 115.555,303.859 109.306,303.186 108.028 C 303.004 107.683,302.438 106.328,301.928 105.019 C 300.027 100.140,295.927 98.398,292.424 100.982 M284.627 111.700 C 283.586 113.075,283.303 113.570,283.997 112.800 C 285.445 111.193,286.934 109.200,286.686 109.200 C 286.594 109.200,285.667 110.325,284.627 111.700 M278.975 118.100 L 277.800 119.400 279.100 118.225 C 279.815 117.579,280.400 116.994,280.400 116.925 C 280.400 116.616,280.070 116.888,278.975 118.100 M275.517 121.270 C 274.573 122.188,274.250 122.593,274.800 122.170 C 276.211 121.083,277.754 119.600,277.472 119.600 C 277.341 119.600,276.462 120.351,275.517 121.270 M266.660 127.500 C 266.018 128.528,253.344 134.122,250.492 134.636 C 249.671 134.783,248.804 135.059,248.565 135.247 C 248.326 135.436,246.709 135.788,244.971 136.029 C 243.234 136.271,241.630 136.588,241.406 136.734 C 241.183 136.880,230.920 137.096,218.600 137.213 L 196.200 137.425 218.227 137.513 C 236.098 137.583,240.627 137.494,242.227 137.040 C 243.312 136.733,245.186 136.361,246.390 136.215 C 247.595 136.068,248.765 135.801,248.990 135.620 C 249.216 135.440,250.210 135.109,251.200 134.884 C 253.231 134.423,255.048 133.794,257.426 132.729 C 258.321 132.328,259.189 132.000,259.355 132.000 C 259.521 132.000,259.927 131.730,260.257 131.400 C 260.587 131.070,261.194 130.800,261.605 130.800 C 262.016 130.800,262.450 130.643,262.568 130.452 C 262.686 130.261,263.777 129.601,264.991 128.987 C 266.206 128.372,267.200 127.719,267.200 127.535 C 267.200 127.119,266.909 127.100,266.660 127.500 M191.391 137.835 C 191.166 137.929,189.906 138.177,188.591 138.386 L 186.200 138.765 188.800 138.570 C 190.230 138.463,192.390 138.226,193.600 138.044 L 195.800 137.713 193.800 137.688 C 192.700 137.674,191.616 137.740,191.391 137.835 M183.089 139.238 C 182.699 139.465,181.529 139.801,180.489 139.985 C 179.450 140.168,177.970 140.545,177.200 140.824 C 176.430 141.102,174.810 141.688,173.600 142.126 C 168.873 143.836,159.238 148.971,159.766 149.499 C 159.884 149.617,160.274 149.470,160.633 149.173 C 161.372 148.560,162.452 147.903,164.200 147.005 C 165.560 146.306,166.253 145.928,167.400 145.261 C 167.840 145.004,168.470 144.692,168.800 144.565 C 169.130 144.439,170.140 143.990,171.044 143.568 C 171.948 143.145,172.938 142.794,173.244 142.787 C 173.550 142.780,174.149 142.510,174.576 142.187 C 175.004 141.864,175.824 141.600,176.400 141.600 C 176.976 141.600,177.796 141.336,178.224 141.013 C 178.651 140.690,179.540 140.408,180.200 140.386 C 181.782 140.335,186.170 138.858,184.800 138.839 C 184.250 138.831,183.480 139.010,183.089 139.238 M156.800 151.251 C 155.590 152.121,154.150 153.301,153.600 153.873 C 153.050 154.445,154.085 153.800,155.900 152.439 C 157.715 151.078,159.200 149.882,159.200 149.782 C 159.200 149.522,159.220 149.510,156.800 151.251 M146.644 160.429 C 144.310 162.864,142.400 165.049,142.400 165.284 C 142.400 165.518,142.955 165.012,143.633 164.158 C 144.312 163.304,144.987 162.508,145.133 162.389 C 145.997 161.686,151.337 156.000,151.134 156.000 C 150.998 156.000,148.978 157.993,146.644 160.429 M312.514 165.800 C 312.517 166.900,312.595 167.303,312.687 166.695 C 312.779 166.086,312.777 165.186,312.682 164.695 C 312.587 164.203,312.511 164.700,312.514 165.800 M139.711 168.500 C 138.929 169.511,138.663 170.132,139.136 169.840 C 139.610 169.547,140.557 168.000,140.263 168.000 C 140.172 168.000,139.924 168.225,139.711 168.500 M312.109 170.400 C 312.109 171.390,312.187 171.795,312.282 171.300 C 312.378 170.805,312.378 169.995,312.282 169.500 C 312.187 169.005,312.109 169.410,312.109 170.400 M136.800 172.600 C 136.517 172.941,136.376 173.309,136.486 173.419 C 136.596 173.529,136.917 173.341,137.200 173.000 C 137.483 172.659,137.624 172.291,137.514 172.181 C 137.404 172.071,137.083 172.259,136.800 172.600 M311.720 178.000 C 311.720 179.210,311.795 179.705,311.887 179.100 C 311.978 178.495,311.978 177.505,311.887 176.900 C 311.795 176.295,311.720 176.790,311.720 178.000 M236.500 186.676 C 236.885 186.776,237.515 186.776,237.900 186.676 C 238.285 186.575,237.970 186.493,237.200 186.493 C 236.430 186.493,236.115 186.575,236.500 186.676 M214.900 187.876 C 215.285 187.976,215.915 187.976,216.300 187.876 C 216.685 187.775,216.370 187.693,215.600 187.693 C 214.830 187.693,214.515 187.775,214.900 187.876 M128.885 190.173 C 128.215 191.644,128.278 191.952,129.030 190.879 C 129.376 190.384,129.595 189.784,129.515 189.544 C 129.435 189.305,129.152 189.588,128.885 190.173 M127.400 196.000 C 127.250 196.473,127.217 196.950,127.327 197.060 C 127.437 197.170,127.650 196.873,127.800 196.400 C 127.950 195.927,127.983 195.450,127.873 195.340 C 127.763 195.230,127.550 195.527,127.400 196.000 M231.100 200.297 C 232.695 200.373,235.305 200.373,236.900 200.297 C 238.495 200.221,237.190 200.159,234.000 200.159 C 230.810 200.159,229.505 200.221,231.100 200.297 M218.200 201.038 L 215.000 201.563 218.000 201.363 C 221.293 201.143,224.878 200.468,222.600 200.497 C 221.940 200.506,219.960 200.749,218.200 201.038 M207.600 202.217 C 206.390 202.495,205.850 202.733,206.400 202.744 C 206.950 202.756,208.390 202.519,209.600 202.217 C 212.356 201.529,210.589 201.529,207.600 202.217 M126.200 204.800 C 126.043 206.366,126.000 207.733,126.104 207.837 C 126.208 207.942,126.420 206.744,126.575 205.175 C 126.730 203.606,126.773 202.239,126.671 202.138 C 126.569 202.036,126.357 203.234,126.200 204.800 M192.800 205.000 C 191.883 205.353,191.676 205.545,192.200 205.555 C 192.640 205.564,193.450 205.314,194.000 205.000 C 195.247 204.287,194.651 204.287,192.800 205.000 M178.000 209.033 C 177.377 209.379,177.235 209.590,177.624 209.594 C 177.966 209.597,178.596 209.336,179.024 209.013 C 179.994 208.278,179.337 208.292,178.000 209.033 M166.400 213.000 C 165.712 213.393,165.603 213.576,166.051 213.586 C 166.409 213.594,166.926 213.330,167.200 213.000 C 167.809 212.266,167.684 212.266,166.400 213.000 M163.200 214.200 C 162.650 214.514,162.380 214.772,162.600 214.772 C 162.820 214.772,163.450 214.514,164.000 214.200 C 164.550 213.886,164.820 213.628,164.600 213.628 C 164.380 213.628,163.750 213.886,163.200 214.200 M159.400 215.814 C 158.740 216.117,158.481 216.372,158.824 216.382 C 159.166 216.392,159.796 216.136,160.224 215.813 C 161.172 215.096,160.969 215.096,159.400 215.814 M128.405 234.642 C 124.729 237.741,124.535 238.077,127.873 235.563 C 129.453 234.374,130.842 233.175,130.960 232.900 C 131.248 232.229,131.345 232.163,128.405 234.642 M117.588 244.300 L 115.000 247.000 117.700 244.412 C 119.185 242.988,120.400 241.773,120.400 241.712 C 120.400 241.417,119.993 241.792,117.588 244.300 M111.191 250.700 L 107.800 254.200 111.300 250.809 C 114.551 247.659,114.982 247.200,114.691 247.200 C 114.631 247.200,113.056 248.775,111.191 250.700 M102.800 260.000 C 102.103 260.880,101.623 261.600,101.733 261.600 C 101.843 261.600,102.503 260.880,103.200 260.000 C 103.897 259.120,104.377 258.400,104.267 258.400 C 104.157 258.400,103.497 259.120,102.800 260.000 M94.378 272.298 C 93.474 274.101,93.487 274.279,94.420 272.883 C 94.904 272.159,95.217 271.483,95.115 271.382 C 95.013 271.280,94.681 271.692,94.378 272.298 M88.865 283.417 C 88.195 284.888,88.323 285.202,89.047 283.865 C 89.386 283.240,89.588 282.654,89.496 282.563 C 89.405 282.471,89.121 282.856,88.865 283.417 M195.905 286.683 C 196.402 286.779,197.122 286.775,197.505 286.675 C 197.887 286.575,197.480 286.496,196.600 286.501 C 195.720 286.505,195.407 286.587,195.905 286.683 M200.700 286.689 C 201.415 286.778,202.585 286.778,203.300 286.689 C 204.015 286.601,203.430 286.528,202.000 286.528 C 200.570 286.528,199.985 286.601,200.700 286.689 " stroke="none" fill="#fc8abc" fill-rule="evenodd"></path></g></svg>